<mxfile host="app.diagrams.net">
  <diagram name="FlightBooking">
    <mxGraphModel dx="1400" dy="900" grid="1" gridSize="10" guides="1" tooltips="1" connect="1" arrows="1" fold="1" page="1" pageScale="1" pageWidth="1400" pageHeight="900">
      <root>
        <mxCell id="0"/>
        <mxCell id="1" parent="0"/>
        
        <!-- Airline Class -->
        <mxCell id="2" value="Airline" style="swimlane;fontStyle=1;align=center;verticalAlign=top;childLayout=stackLayout;horizontal=1;startSize=26;horizontalStack=0;resizeParent=1;resizeParentMax=0;resizeLast=0;collapsible=1;marginBottom=0;" vertex="1" parent="1">
          <mxGeometry x="40" y="40" width="200" height="60" as="geometry"/>
        </mxCell>
        <mxCell id="3" value="" style="line;strokeWidth=1;fillColor=none;align=left;verticalAlign=middle;spacingTop=-1;spacingLeft=3;spacingRight=3;rotatable=0;labelPosition=right;points=[];portConstraint=eastwest;" vertex="1" parent="2">
          <mxGeometry y="26" width="200" height="8" as="geometry"/>
        </mxCell>
        <mxCell id="4" value="" style="text;strokeColor=none;fillColor=none;align=left;verticalAlign=top;spacingLeft=4;spacingRight=4;overflow=hidden;rotatable=0;points=[[0,0.5],[1,0.5]];portConstraint=eastwest;" vertex="1" parent="2">
          <mxGeometry y="34" width="200" height="26" as="geometry"/>
        </mxCell>
        
        <!-- Flight Class -->
        <mxCell id="5" value="Flight" style="swimlane;fontStyle=1;align=center;verticalAlign=top;childLayout=stackLayout;horizontal=1;startSize=26;horizontalStack=0;resizeParent=1;resizeParentMax=0;resizeLast=0;collapsible=1;marginBottom=0;" vertex="1" parent="1">
          <mxGeometry x="340" y="40" width="200" height="138" as="geometry"/>
        </mxCell>
        <mxCell id="6" value="- departureDate: Date" style="text;strokeColor=none;fillColor=none;align=left;verticalAlign=top;spacingLeft=4;spacingRight=4;overflow=hidden;rotatable=0;points=[[0,0.5],[1,0.5]];portConstraint=eastwest;" vertex="1" parent="5">
          <mxGeometry y="26" width="200" height="26" as="geometry"/>
        </mxCell>
        <mxCell id="7" value="- departureTime: Time" style="text;strokeColor=none;fillColor=none;align=left;verticalAlign=top;spacingLeft=4;spacingRight=4;overflow=hidden;rotatable=0;points=[[0,0.5],[1,0.5]];portConstraint=eastwest;" vertex="1" parent="5">
          <mxGeometry y="52" width="200" height="26" as="geometry"/>
        </mxCell>
        <mxCell id="8" value="- arrivalDate: Date" style="text;strokeColor=none;fillColor=none;align=left;verticalAlign=top;spacingLeft=4;spacingRight=4;overflow=hidden;rotatable=0;points=[[0,0.5],[1,0.5]];portConstraint=eastwest;" vertex="1" parent="5">
          <mxGeometry y="78" width="200" height="26" as="geometry"/>
        </mxCell>
        <mxCell id="9" value="- arrivalTime: Time" style="text;strokeColor=none;fillColor=none;align=left;verticalAlign=top;spacingLeft=4;spacingRight=4;overflow=hidden;rotatable=0;points=[[0,0.5],[1,0.5]];portConstraint=eastwest;" vertex="1" parent="5">
          <mxGeometry y="104" width="200" height="26" as="geometry"/>
        </mxCell>
        <mxCell id="10" value="" style="line;strokeWidth=1;fillColor=none;align=left;verticalAlign=middle;spacingTop=-1;spacingLeft=3;spacingRight=3;rotatable=0;labelPosition=right;points=[];portConstraint=eastwest;" vertex="1" parent="5">
          <mxGeometry y="130" width="200" height="8" as="geometry"/>
        </mxCell>
        
        <!-- Client Class -->
        <mxCell id="11" value="Client" style="swimlane;fontStyle=1;align=center;verticalAlign=top;childLayout=stackLayout;horizontal=1;startSize=26;horizontalStack=0;resizeParent=1;resizeParentMax=0;resizeLast=0;collapsible=1;marginBottom=0;" vertex="1" parent="1">
          <mxGeometry x="640" y="40" width="200" height="60" as="geometry"/>
        </mxCell>
        <mxCell id="12" value="" style="line;strokeWidth=1;fillColor=none;align=left;verticalAlign=middle;spacingTop=-1;spacingLeft=3;spacingRight=3;rotatable=0;labelPosition=right;points=[];portConstraint=eastwest;" vertex="1" parent="11">
          <mxGeometry y="26" width="200" height="8" as="geometry"/>
        </mxCell>
        <mxCell id="13" value="" style="text;strokeColor=none;fillColor=none;align=left;verticalAlign=top;spacingLeft=4;spacingRight=4;overflow=hidden;rotatable=0;points=[[0,0.5],[1,0.5]];portConstraint=eastwest;" vertex="1" parent="11">
          <mxGeometry y="34" width="200" height="26" as="geometry"/>
        </mxCell>
        
        <!-- Reservation Class -->
        <mxCell id="14" value="Reservation" style="swimlane;fontStyle=1;align=center;verticalAlign=top;childLayout=stackLayout;horizontal=1;startSize=26;horizontalStack=0;resizeParent=1;resizeParentMax=0;resizeLast=0;collapsible=1;marginBottom=0;" vertex="1" parent="1">
          <mxGeometry x="640" y="250" width="200" height="86" as="geometry"/>
        </mxCell>
        <mxCell id="15" value="- status: String" style="text;strokeColor=none;fillColor=none;align=left;verticalAlign=top;spacingLeft=4;spacingRight=4;overflow=hidden;rotatable=0;points=[[0,0.5],[1,0.5]];portConstraint=eastwest;" vertex="1" parent="14">
          <mxGeometry y="26" width="200" height="26" as="geometry"/>
        </mxCell>
        <mxCell id="16" value="" style="line;strokeWidth=1;fillColor=none;align=left;verticalAlign=middle;spacingTop=-1;spacingLeft=3;spacingRight=3;rotatable=0;labelPosition=right;points=[];portConstraint=eastwest;" vertex="1" parent="14">
          <mxGeometry y="52" width="200" height="8" as="geometry"/>
        </mxCell>
        <mxCell id="17" value="+ confirm(): void&#10;+ cancel(): void" style="text;strokeColor=none;fillColor=none;align=left;verticalAlign=top;spacingLeft=4;spacingRight=4;overflow=hidden;rotatable=0;points=[[0,0.5],[1,0.5]];portConstraint=eastwest;" vertex="1" parent="14">
          <mxGeometry y="60" width="200" height="26" as="geometry"/>
        </mxCell>
        
        <!-- Passenger Class -->
        <mxCell id="18" value="Passenger" style="swimlane;fontStyle=1;align=center;verticalAlign=top;childLayout=stackLayout;horizontal=1;startSize=26;horizontalStack=0;resizeParent=1;resizeParentMax=0;resizeLast=0;collapsible=1;marginBottom=0;" vertex="1" parent="1">
          <mxGeometry x="940" y="250" width="200" height="60" as="geometry"/>
        </mxCell>
        <mxCell id="19" value="" style="line;strokeWidth=1;fillColor=none;align=left;verticalAlign=middle;spacingTop=-1;spacingLeft=3;spacingRight=3;rotatable=0;labelPosition=right;points=[];portConstraint=eastwest;" vertex="1" parent="18">
          <mxGeometry y="26" width="200" height="8" as="geometry"/>
        </mxCell>
        <mxCell id="20" value="" style="text;strokeColor=none;fillColor=none;align=left;verticalAlign=top;spacingLeft=4;spacingRight=4;overflow=hidden;rotatable=0;points=[[0,0.5],[1,0.5]];portConstraint=eastwest;" vertex="1" parent="18">
          <mxGeometry y="34" width="200" height="26" as="geometry"/>
        </mxCell>
        
        <!-- Airport Class -->
        <mxCell id="21" value="Airport" style="swimlane;fontStyle=1;align=center;verticalAlign=top;childLayout=stackLayout;horizontal=1;startSize=26;horizontalStack=0;resizeParent=1;resizeParentMax=0;resizeLast=0;collapsible=1;marginBottom=0;" vertex="1" parent="1">
          <mxGeometry x="340" y="450" width="200" height="60" as="geometry"/>
        </mxCell>
        <mxCell id="22" value="" style="line;strokeWidth=1;fillColor=none;align=left;verticalAlign=middle;spacingTop=-1;spacingLeft=3;spacingRight=3;rotatable=0;labelPosition=right;points=[];portConstraint=eastwest;" vertex="1" parent="21">
          <mxGeometry y="26" width="200" height="8" as="geometry"/>
        </mxCell>
        <mxCell id="23" value="" style="text;strokeColor=none;fillColor=none;align=left;verticalAlign=top;spacingLeft=4;spacingRight=4;overflow=hidden;rotatable=0;points=[[0,0.5],[1,0.5]];portConstraint=eastwest;" vertex="1" parent="21">
          <mxGeometry y="34" width="200" height="26" as="geometry"/>
        </mxCell>
        
        <!-- Stopover Class -->
        <mxCell id="24" value="Stopover" style="swimlane;fontStyle=1;align=center;verticalAlign=top;childLayout=stackLayout;horizontal=1;startSize=26;horizontalStack=0;resizeParent=1;resizeParentMax=0;resizeLast=0;collapsible=1;marginBottom=0;" vertex="1" parent="1">
          <mxGeometry x="40" y="250" width="200" height="86" as="geometry"/>
        </mxCell>
        <mxCell id="25" value="- departureTime: Time" style="text;strokeColor=none;fillColor=none;align=left;verticalAlign=top;spacingLeft=4;spacingRight=4;overflow=hidden;rotatable=0;points=[[0,0.5],[1,0.5]];portConstraint=eastwest;" vertex="1" parent="24">
          <mxGeometry y="26" width="200" height="26" as="geometry"/>
        </mxCell>
        <mxCell id="26" value="- arrivalTime: Time" style="text;strokeColor=none;fillColor=none;align=left;verticalAlign=top;spacingLeft=4;spacingRight=4;overflow=hidden;rotatable=0;points=[[0,0.5],[1,0.5]];portConstraint=eastwest;" vertex="1" parent="24">
          <mxGeometry y="52" width="200" height="26" as="geometry"/>
        </mxCell>
        <mxCell id="27" value="" style="line;strokeWidth=1;fillColor=none;align=left;verticalAlign=middle;spacingTop=-1;spacingLeft=3;spacingRight=3;rotatable=0;labelPosition=right;points=[];portConstraint=eastwest;" vertex="1" parent="24">
          <mxGeometry y="78" width="200" height="8" as="geometry"/>
        </mxCell>
        
        <!-- City Class -->
        <mxCell id="28" value="City" style="swimlane;fontStyle=1;align=center;verticalAlign=top;childLayout=stackLayout;horizontal=1;startSize=26;horizontalStack=0;resizeParent=1;resizeParentMax=0;resizeLast=0;collapsible=1;marginBottom=0;" vertex="1" parent="1">
          <mxGeometry x="340" y="650" width="200" height="60" as="geometry"/>
        </mxCell>
        <mxCell id="29" value="" style="line;strokeWidth=1;fillColor=none;align=left;verticalAlign=middle;spacingTop=-1;spacingLeft=3;spacingRight=3;rotatable=0;labelPosition=right;points=[];portConstraint=eastwest;" vertex="1" parent="28">
          <mxGeometry y="26" width="200" height="8" as="geometry"/>
        </mxCell>
        <mxCell id="30" value="" style="text;strokeColor=none;fillColor=none;align=left;verticalAlign=top;spacingLeft=4;spacingRight=4;overflow=hidden;rotatable=0;points=[[0,0.5],[1,0.5]];portConstraint=eastwest;" vertex="1" parent="28">
          <mxGeometry y="34" width="200" height="26" as="geometry"/>
        </mxCell>
        
        <!-- Airline to Flight Association -->
        <mxCell id="31" value="" style="endArrow=none;html=1;exitX=1;exitY=0.5;exitDx=0;exitDy=0;entryX=0;entryY=0.5;entryDx=0;entryDy=0;" edge="1" parent="1" source="2" target="5">
          <mxGeometry width="160" relative="1" as="geometry">
            <mxPoint x="240" y="109" as="sourcePoint"/>
            <mxPoint x="340" y="109" as="targetPoint"/>
          </mxGeometry>
        </mxCell>
        <mxCell id="32" value="1" style="edgeLabel;resizable=0;html=1;align=left;verticalAlign=bottom;" connectable="0" vertex="1" parent="31">
          <mxGeometry x="-1" relative="1" as="geometry">
            <mxPoint x="5" as="offset"/>
          </mxGeometry>
        </mxCell>
        <mxCell id="33" value="*" style="edgeLabel;resizable=0;html=1;align=right;verticalAlign=bottom;" connectable="0" vertex="1" parent="31">
          <mxGeometry x="1" relative="1" as="geometry">
            <mxPoint x="-5" as="offset"/>
          </mxGeometry>
        </mxCell>
        <mxCell id="34" value="offers" style="edgeLabel;html=1;align=center;verticalAlign=middle;resizable=0;points=[];" vertex="1" connectable="0" parent="31">
          <mxGeometry x="-0.1" y="1" relative="1" as="geometry">
            <mxPoint y="-9" as="offset"/>
          </mxGeometry>
        </mxCell>
        
        <!-- Client to Reservation Association -->
        <mxCell id="35" value="" style="endArrow=none;html=1;exitX=0.5;exitY=1;exitDx=0;exitDy=0;entryX=0.5;entryY=0;entryDx=0;entryDy=0;" edge="1" parent="1" source="11" target="14">
          <mxGeometry width="160" relative="1" as="geometry">
            <mxPoint x="740" y="120" as="sourcePoint"/>
            <mxPoint x="740" y="240" as="targetPoint"/>
          </mxGeometry>
        </mxCell>
        <mxCell id="36" value="1" style="edgeLabel;resizable=0;html=1;align=left;verticalAlign=top;" connectable="0" vertex="1" parent="35">
          <mxGeometry x="-1" relative="1" as="geometry">
            <mxPoint y="5" as="offset"/>
          </mxGeometry>
        </mxCell>
        <mxCell id="37" value="*" style="edgeLabel;resizable=0;html=1;align=right;verticalAlign=bottom;" connectable="0" vertex="1" parent="35">
          <mxGeometry x="1" relative="1" as="geometry">
            <mxPoint y="-5" as="offset"/>
          </mxGeometry>
        </mxCell>
        <mxCell id="38" value="books" style="edgeLabel;html=1;align=center;verticalAlign=middle;resizable=0;points=[];" vertex="1" connectable="0" parent="35">
          <mxGeometry x="-0.1" y="1" relative="1" as="geometry">
            <mxPoint x="-15" y="-5" as="offset"/>
          </mxGeometry>
        </mxCell>
        
        <!-- Flight to Reservation Association -->
        <mxCell id="39" value="" style="endArrow=none;html=1;exitX=1;exitY=0.5;exitDx=0;exitDy=0;entryX=0;entryY=0.5;entryDx=0;entryDy=0;" edge="1" parent="1" source="5" target="14">
          <mxGeometry width="160" relative="1" as="geometry">
            <mxPoint x="540" y="109" as="sourcePoint"/>
            <mxPoint x="640" y="293" as="targetPoint"/>
            <Array as="points">
              <mxPoint x="600" y="109"/>
              <mxPoint x="600" y="293"/>
            </Array>
          </mxGeometry>
        </mxCell>
        <mxCell id="40" value="1" style="edgeLabel;resizable=0;html=1;align=left;verticalAlign=top;" connectable="0" vertex="1" parent="39">
          <mxGeometry x="-1" relative="1" as="geometry">
            <mxPoint x="5" as="offset"/>
          </mxGeometry>
        </mxCell>
        <mxCell id="41" value="*" style="edgeLabel;resizable=0;html=1;align=right;verticalAlign=bottom;" connectable="0" vertex="1" parent="39">
          <mxGeometry x="1" relative="1" as="geometry">
            <mxPoint x="-5" as="offset"/>
          </mxGeometry>
        </mxCell>
        
        <!-- Passenger to Reservation Association -->
        <mxCell id="42" value="" style="endArrow=none;html=1;exitX=0;exitY=0.5;exitDx=0;exitDy=0;entryX=1;entryY=0.5;entryDx=0;entryDy=0;" edge="1" parent="1" source="18" target="14">
          <mxGeometry width="160" relative="1" as="geometry">
            <mxPoint x="930" y="293" as="sourcePoint"/>
            <mxPoint x="850" y="293" as="targetPoint"/>
          </mxGeometry>
        </mxCell>
        <mxCell id="43" value="1" style="edgeLabel;resizable=0;html=1;align=left;verticalAlign=bottom;" connectable="0" vertex="1" parent="42">
          <mxGeometry x="-1" relative="1" as="geometry">
            <mxPoint x="5" as="offset"/>
          </mxGeometry>
        </mxCell>
        <mxCell id="44" value="*" style="edgeLabel;resizable=0;html=1;align=right;verticalAlign=bottom;" connectable="0" vertex="1" parent="42">
          <mxGeometry x="1" relative="1" as="geometry">
            <mxPoint x="-5" as="offset"/>
          </mxGeometry>
        </mxCell>
        
        <!-- Flight to Stopover Association -->
        <mxCell id="45" value="" style="endArrow=none;html=1;exitX=0;exitY=0.5;exitDx=0;exitDy=0;entryX=1;entryY=0.5;entryDx=0;entryDy=0;" edge="1" parent="1" source="5" target="24">
          <mxGeometry width="160" relative="1" as="geometry">
            <mxPoint x="330" y="109" as="sourcePoint"/>
            <mxPoint x="250" y="293" as="targetPoint"/>
            <Array as="points">
              <mxPoint x="280" y="109"/>
              <mxPoint x="280" y="293"/>
            </Array>
          </mxGeometry>
        </mxCell>
        <mxCell id="46" value="1" style="edgeLabel;resizable=0;html=1;align=left;verticalAlign=top;" connectable="0" vertex="1" parent="45">
          <mxGeometry x="-1" relative="1" as="geometry">
            <mxPoint x="5" as="offset"/>
          </mxGeometry>
        </mxCell>
        <mxCell id="47" value="*" style="edgeLabel;resizable=0;html=1;align=right;verticalAlign=bottom;" connectable="0" vertex="1" parent="45">
          <mxGeometry x="1" relative="1" as="geometry">
            <mxPoint x="-5" as="offset"/>
          </mxGeometry>
        </mxCell>
        <mxCell id="48" value="includes" style="edgeLabel;html=1;align=center;verticalAlign=middle;resizable=0;points=[];" vertex="1" connectable="0" parent="45">
          <mxGeometry x="-0.1" y="1" relative="1" as="geometry">
            <mxPoint x="-15" y="-9" as="offset"/>
          </mxGeometry>
        </mxCell>
        
        <!-- Stopover to Airport Association -->
        <mxCell id="49" value="" style="endArrow=none;html=1;exitX=0.5;exitY=1;exitDx=0;exitDy=0;entryX=0;entryY=0.5;entryDx=0;entryDy=0;" edge="1" parent="1" source="24" target="21">
          <mxGeometry width="160" relative="1" as="geometry">
            <mxPoint x="140" y="350" as="sourcePoint"/>
            <mxPoint x="340" y="480" as="targetPoint"/>
            <Array as="points">
              <mxPoint x="140" y="480"/>
            </Array>
          </mxGeometry>
        </mxCell>
        <mxCell id="50" value="*" style="edgeLabel;resizable=0;html=1;align=left;verticalAlign=top;" connectable="0" vertex="1" parent="49">
          <mxGeometry x="-1" relative="1" as="geometry">
            <mxPoint y="5" as="offset"/>
          </mxGeometry>
        </mxCell>
        <mxCell id="51" value="1" style="edgeLabel;resizable=0;html=1;align=right;verticalAlign=bottom;" connectable="0" vertex="1" parent="49">
          <mxGeometry x="1" relative="1" as="geometry">
            <mxPoint x="-5" as="offset"/>
          </mxGeometry>
        </mxCell>
        
        <!-- Flight to Airport (departure) Association -->
        <mxCell id="52" value="" style="endArrow=none;html=1;exitX=0.25;exitY=1;exitDx=0;exitDy=0;entryX=0.25;entryY=0;entryDx=0;entryDy=0;" edge="1" parent="1" source="5" target="21">
          <mxGeometry width="160" relative="1" as="geometry">
            <mxPoint x="390" y="190" as="sourcePoint"/>
            <mxPoint x="390" y="440" as="targetPoint"/>
          </mxGeometry>
        </mxCell>
        <mxCell id="53" value="*" style="edgeLabel;resizable=0;html=1;align=left;verticalAlign=top;" connectable="0" vertex="1" parent="52">
          <mxGeometry x="-1" relative="1" as="geometry">
            <mxPoint y="5" as="offset"/>
          </mxGeometry>
        </mxCell>
        <mxCell id="54" value="1" style="edgeLabel;resizable=0;html=1;align=right;verticalAlign=bottom;" connectable="0" vertex="1" parent="52">
          <mxGeometry x="1" relative="1" as="geometry">
            <mxPoint y="-5" as="offset"/>
          </mxGeometry>
        </mxCell>
        <mxCell id="55" value="departure" style="edgeLabel;html=1;align=center;verticalAlign=middle;resizable=0;points=[];" vertex="1" connectable="0" parent="52">
          <mxGeometry x="-0.1" y="1" relative="1" as="geometry">
            <mxPoint x="-20" y="-5" as="offset"/>
          </mxGeometry>
        </mxCell>
        
        <!-- Flight to Airport (arrival) Association -->
        <mxCell id="56" value="" style="endArrow=none;html=1;exitX=0.75;exitY=1;exitDx=0;exitDy=0;entryX=0.75;entryY=0;entryDx=0;entryDy=0;" edge="1" parent="1" source="5" target="21">
          <mxGeometry width="160" relative="1" as="geometry">
            <mxPoint x="490" y="190" as="sourcePoint"/>
            <mxPoint x="490" y="440" as="targetPoint"/>
          </mxGeometry>
        </mxCell>
        <mxCell id="57" value="*" style="edgeLabel;resizable=0;html=1;align=left;verticalAlign=top;" connectable="0" vertex="1" parent="56">
          <mxGeometry x="-1" relative="1" as="geometry">
            <mxPoint y="5" as="offset"/>
          </mxGeometry>
        </mxCell>
        <mxCell id="58" value="1" style="edgeLabel;resizable=0;html=1;align=right;verticalAlign=bottom;" connectable="0" vertex="1" parent="56">
          <mxGeometry x="1" relative="1" as="geometry">
            <mxPoint y="-5" as="offset"/>
          </mxGeometry>
        </mxCell>
        <mxCell id="59" value="arrival" style="edgeLabel;html=1;align=center;verticalAlign=middle;resizable=0;points=[];" vertex="1" connectable="0" parent="56">
          <mxGeometry x="-0.1" y="1" relative="1" as="geometry">
            <mxPoint x="15" y="-5" as="offset"/>
          </mxGeometry>
        </mxCell>
        
        <!-- Airport to City Association -->
        <mxCell id="60" value="" style="endArrow=none;html=1;exitX=0.5;exitY=1;exitDx=0;exitDy=0;entryX=0.5;entryY=0;entryDx=0;entryDy=0;" edge="1" parent="1" source="21" target="28">
          <mxGeometry width="160" relative="1" as="geometry">
            <mxPoint x="440" y="520" as="sourcePoint"/>
            <mxPoint x="440" y="640" as="targetPoint"/>
          </mxGeometry>
        </mxCell>
        <mxCell id="61" value="1..*" style="edgeLabel;resizable=0;html=1;align=left;verticalAlign=top;" connectable="0" vertex="1" parent="60">
          <mxGeometry x="-1" relative="1" as="geometry">
            <mxPoint y="5" as="offset"/>
          </mxGeometry>
        </mxCell>
        <mxCell id="62" value="*" style="edgeLabel;resizable=0;html=1;align=right;verticalAlign=bottom;" connectable="0" vertex="1" parent="60">
          <mxGeometry x="1" relative="1" as="geometry">
            <mxPoint y="-5" as="offset"/>
          </mxGeometry>
        </mxCell>
        <mxCell id="63" value="serves" style="edgeLabel;html=1;align=center;verticalAlign=middle;resizable=0;points=[];" vertex="1" connectable="0" parent="60">
          <mxGeometry x="-0.1" y="1" relative="1" as="geometry">
            <mxPoint x="-15" y="-5" as="offset"/>
          </mxGeometry>
        </mxCell>
        
      </root>
    </mxGraphModel>
  </diagram>
</mxfile>